# xmcd CD database file
#
# Track frame offsets:
#	150
#	15024
#	37030
#	58282
#	70761
#	78104
#	118706
#	130885
#	144728
#	151354
#	162577
#	183260
#	211300
#	230191
#	240022
#
# Disc length: 3305 seconds
#
# Revision: 0
# Processed by: cddbd v1.5.2PL0 Copyright (c) Steve Scherf et al.
# Submitted via: CDex 1.51
#
DISCID=c60ce70f
DTITLE=Ugly Beauties - Ugly Beauties
DYEAR=2009
DGENRE=Jazz
TTITLE0=Windsor
TTITLE1=Oubliette
TTITLE2=Harold Lloyd
TTITLE3=Minimalism
TTITLE4=Faux Amis
TTITLE5=Zoetrope
TTITLE6=Wallflower
TTITLE7=Ding an Sich
TTITLE8=Be Gone
TTITLE9=Also
TTITLE10=In A Hurry
TTITLE11=Figure and Ground
TTITLE12=Corde Lisse
TTITLE13=Tombe
TTITLE14=Premonition
EXTD=YEAR: 2009
EXTT0=
EXTT1=
EXTT2=
EXTT3=
EXTT4=
EXTT5=
EXTT6=
EXTT7=
EXTT8=
EXTT9=
EXTT10=
EXTT11=
EXTT12=
EXTT13=
EXTT14=
PLAYORDER=
